# xmcd
# Copyright (C) 1995-1998 Ti Kan
#
# Track frame offsets:
#       150
#       3891
#       32997
#       57297
#       91722
#       106378
#       131452
#       167710
#       184275
#       211500
#
# Disc length: 3031 seconds
#
# Revision: 0
# Processed by: cddbd v1.5.2PL0 Copyright (c) Steve Scherf et al.
# Submitted via: CD-Transfer v1.0
#
DISCID=770bd50a
DTITLE=A Red Season Shade - The Outcome Fosters Detachment
DYEAR=05
DGENRE=
TTITLE0=Dark Sketch
TTITLE1=Failure For Some Ways
TTITLE2=Fire Harbor Day
TTITLE3=Rising On The Briht And Serene Fields
TTITLE4=Dwaze Zakeh
TTITLE5=Last Light On Our Walls
TTITLE6=Praising The Distance Concept
TTITLE7=There I Fall
TTITLE8=Shades Of Truth
TTITLE9=The Waking Of A Mind
EXTD=
EXTT0=
EXTT1=
EXTT2=
EXTT3=
EXTT4=
EXTT5=
EXTT6=
EXTT7=
EXTT8=
EXTT9=
PLAYORDER=
